# ProBuilder 6.0.7
# https://unity3d.com/unity/features/worldbuilding/probuilder
# 2025-11-17 오후 11:28:55

mtllib ./Bow.mtl
o Bow

g Bow
v 1.634977E-07 0.5 -0.1975569
v -0.03181964 0.4912132 -0.1975569
v -0.04499984 0.47 -0.1975569
v -0.03181965 0.4487868 -0.1975569
v 1.602792E-07 0.44 -0.1975569
v 0.03181996 0.4487868 -0.1975569
v 0.04500016 0.47 -0.1975569
v 0.03181997 0.4912132 -0.1975569
v 5.742058E-08 0.3394539 0.197557
v -0.03181979 0.3336211 0.189203
v -0.04499996 0.3195392 0.1690346
v -0.03181974 0.3054574 0.1488661
v 5.111842E-08 0.2996244 0.140512
v 0.03181985 0.3054573 0.1488662
v 0.04500007 0.319539 0.1690346
v 0.03181985 0.333621 0.1892031
v -1.330271E-07 -0.2528136 0.197557
v -0.03181992 -0.2469806 0.189203
v -0.04500015 -0.2328987 0.1690346
v -0.03181993 -0.2188168 0.1488661
v -1.37525E-07 -0.2129839 0.140512
v 0.03181972 -0.2188168 0.1488662
v 0.04499988 -0.2328987 0.1690346
v 0.03181966 -0.2469806 0.1892031
v 4.428844E-08 -0.5 -0.1975569
v -0.03181976 -0.4912132 -0.1975569
v -0.04499995 -0.47 -0.1975569
v -0.03181975 -0.4487868 -0.1975569
v 5.537503E-08 -0.44 -0.1975569
v 0.03181985 -0.4487868 -0.1975569
v 0.04500005 -0.47 -0.1975569
v 0.03181986 -0.4912132 -0.1975569

vt 1.110809 5.829978E-15
vt 1.110809 0.0212132
vt 0.4912132 1.110809
vt 0.47 1.110809
vt 0.4487868 1.110809
vt -1.110809 0.0212132
vt -1.110809 -2.622677E-09
vt -1.110809 -0.0212132
vt -0.4487868 1.110809
vt -0.47 1.110809
vt -0.4912132 1.110809
vt 1.110809 -0.02121321
vt 0.6035789 5.829978E-15
vt 0.6108302 0.0212132
vt 0.2469805 0.6108302
vt 0.235 0.6283364
vt 0.2230195 0.6458426
vt -0.6458426 0.0212132
vt -0.6530939 -2.622677E-09
vt -0.6458426 -0.0212132
vt -0.2230195 0.6458426
vt -0.235 0.6283364
vt -0.2469805 0.6108302
vt 0.6108302 -0.02121321
vt 0.251943 5.829978E-15
vt 0.2469805 0.0212132
vt -0.2230195 0.0212132
vt -0.218057 -2.622677E-09
vt -0.2230195 -0.0212132
vt 0.2469805 -0.02121321
vt -0.2519431 5.829978E-15
vt -0.2469805 0.0212132
vt -0.235 0.6283364
vt 0.2230195 0.0212132
vt 0.218057 -2.622677E-09
vt 0.2230195 -0.0212132
vt 0.235 0.6283364
vt -0.2469805 -0.02121321
vt -0.6035789 5.829978E-15
vt -0.6108302 0.0212132
vt 0.6458427 0.0212132
vt 0.6530939 -2.622677E-09
vt 0.6458427 -0.0212132
vt -0.6108302 -0.02121321
vt -0.4912132 0.03181975
vt -0.5 -5.09042E-08
vt -0.4912132 -0.03181986
vt -0.47 -0.04500005
vt -0.4487868 -0.03181985
vt -0.44 -5.483822E-08
vt -0.4487868 0.03181975
vt -0.47 0.04499995
vt 0.5 -5.09042E-08
vt 0.4912132 0.03181975
vt 0.47 0.04499995
vt 0.4487868 0.03181975
vt 0.44 -5.483822E-08
vt 0.4487868 -0.03181985
vt 0.47 -0.04500005
vt 0.4912132 -0.03181986

vn 0.00317367 0.9908904 0.04498792
vn -0.5989228 0.7934986 0.03606893
vn -0.9999826 -0.0058145 -0.0003179696
vn -0.6011856 -0.7916014 -0.03651769
vn -0.003714865 -0.990521 -0.04588269
vn 0.5991403 -0.7930832 -0.03668067
vn 0.9999828 0.005825627 0.0002100594
vn 0.6007451 0.7921131 0.03608568
vn 0.00226991 0.7210915 0.2315126
vn -0.8207285 0.4424407 0.1207813
vn -0.9999967 -0.002544822 -0.0001423909
vn -0.8217778 -0.4398296 -0.1210496
vn -0.00276459 -0.7198757 -0.2319341
vn 0.8207175 -0.4420092 -0.1209659
vn 0.9999959 0.002837525 0.0001074258
vn 0.821544 0.4408816 0.1207992
vn -0.0110828 -0.6882045 0.2424046
vn -0.8277305 -0.4093655 0.1282385
vn -0.9999183 -0.01255206 0.000805417
vn -0.8244596 0.41352 -0.1291004
vn 0.01332757 0.6818523 -0.2443882
vn 0.8284027 0.4047765 -0.1293754
vn 0.9999312 0.01139268 -0.0009327137
vn 0.8245535 -0.4157672 0.1282245
vn -0.0158837 -0.9786203 0.06852166
vn -0.6124467 -0.7733326 0.0547701
vn -0.9996482 -0.02608963 0.001592403
vn -0.6066999 0.7759305 -0.05772931
vn 0.01850174 0.9757051 -0.07294726
vn 0.6139016 0.7708213 -0.05686412
vn 0.9996418 0.02598695 -0.002137552
vn 0.6059049 -0.7784961 0.0547266
vn 8.962655E-08 0 -0.334152

usemtl GridOrange_01_Mat
f 3/52/33 2/45/33 4/51/33
f 7/48/33 6/49/33 8/47/33
f 8/47/33 6/49/33 1/46/33
f 5/50/33 1/46/33 6/49/33
f 5/50/33 4/51/33 1/46/33
f 2/45/33 1/46/33 4/51/33
f 31/59/33 32/60/33 30/58/33
f 30/58/33 32/60/33 29/57/33
f 25/53/33 29/57/33 32/60/33
f 27/55/33 28/56/33 26/54/33
f 26/54/33 28/56/33 25/53/33
f 29/57/33 25/53/33 28/56/33
f 10/14/10 9/13/9 1/1/1
f 1/1/1 2/2/2 10/14/10
f 11/16/11 10/15/10 2/3/2
f 2/3/2 3/4/3 11/16/11
f 12/17/12 11/16/11 3/4/3
f 3/4/3 4/5/4 12/17/12
f 13/19/13 12/18/12 4/6/4
f 4/6/4 5/7/5 13/19/13
f 14/20/14 13/19/13 5/7/5
f 5/7/5 6/8/6 14/20/14
f 15/22/15 14/21/14 6/9/6
f 6/9/6 7/10/7 15/22/15
f 16/23/16 15/22/15 7/10/7
f 7/10/7 8/11/8 16/23/16
f 9/13/9 16/24/16 8/12/8
f 8/12/8 1/1/1 9/13/9
f 18/32/18 17/31/17 9/25/9
f 9/25/9 10/26/10 18/32/18
f 19/33/19 18/23/18 10/15/10
f 10/15/10 11/16/11 19/33/19
f 20/21/20 19/33/19 11/16/11
f 11/16/11 12/17/12 20/21/20
f 21/35/21 20/34/20 12/27/12
f 12/27/12 13/28/13 21/35/21
f 22/36/22 21/35/21 13/28/13
f 13/28/13 14/29/14 22/36/22
f 23/37/23 22/17/22 14/21/14
f 14/21/14 15/22/15 23/37/23
f 24/15/24 23/37/23 15/22/15
f 15/22/15 16/23/16 24/15/24
f 17/31/17 24/38/24 16/30/16
f 16/30/16 9/25/9 17/31/17
f 26/6/26 25/7/25 17/39/17
f 17/39/17 18/40/18 26/6/26
f 27/10/27 26/11/26 18/23/18
f 18/23/18 19/33/19 27/10/27
f 28/9/28 27/10/27 19/33/19
f 19/33/19 20/21/20 28/9/28
f 29/1/29 28/2/28 20/41/20
f 20/41/20 21/42/21 29/1/29
f 30/12/30 29/1/29 21/42/21
f 21/42/21 22/43/22 30/12/30
f 31/4/31 30/5/30 22/17/22
f 22/17/22 23/37/23 31/4/31
f 32/3/32 31/4/31 23/37/23
f 23/37/23 24/15/24 32/3/32
f 25/7/25 32/8/32 24/44/24
f 24/44/24 17/39/17 25/7/25

